<?xml version="1.0" standalone="no"?><!DOCTYPE svg PUBLIC "-//W3C//DTD SVG 1.1//EN" "http://www.w3.org/Graphics/SVG/1.1/DTD/svg11.dtd"><svg t="1608862488162" class="icon" viewBox="0 0 1024 1024" version="1.1" xmlns="http://www.w3.org/2000/svg" p-id="2606" xmlns:xlink="http://www.w3.org/1999/xlink" width="200" height="200"><defs><style type="text/css"></style></defs><path d="M289.344 460.672c13.696 0 27.392 5.632 38.336 16.32l444.736 451.584a56.768 56.768 0 0 1 0.448 78.72 53.312 53.312 0 0 1-76.608 0.512L251.584 556.288a56.768 56.768 0 0 1-0.512-78.72 48.896 48.896 0 0 1 38.208-16.896h0.064zM733.632 0c13.76 0 27.584 5.568 38.592 16.192a55.68 55.68 0 0 1 0.576 78.016L328.96 546.688a54.4 54.4 0 0 1-77.248 0.576 55.68 55.68 0 0 1-0.576-78.08L695.04 16.768A53.312 53.312 0 0 1 733.696 0h-0.064z" fill="#282828" p-id="2607"></path></svg>